<svg xmlns="http://www.w3.org/2000/svg" width="17" height="17" fill="none" viewBox="0 0 17 17">
    <path fill="#08CEBB" d="M1.907 14.829a.583.583 0 0 0-.22-.429c-.129-.101-.302-.152-.52-.152-.224 0-.394.043-.51.13a.445.445 0 0 0-.174.38c0 .114.038.2.116.255.077.056.233.112.466.166l.513.123c.275.065.472.162.59.29.117.127.175.306.175.539a.759.759 0 0 1-.304.635c-.202.156-.475.234-.821.234-.385 0-.685-.09-.902-.27C.106 16.552 0 16.309 0 16v-.021h.367a.618.618 0 0 0 .232.494c.148.116.354.175.619.175.244 0 .43-.043.557-.127a.416.416 0 0 0 .19-.37c0-.142-.042-.246-.126-.315-.083-.066-.25-.13-.501-.19l-.513-.122c-.259-.061-.444-.147-.555-.256-.11-.11-.166-.261-.166-.455 0-.282.096-.505.287-.669.192-.166.45-.248.777-.248.33 0 .594.082.79.248.197.165.302.394.315.685h-.366zm1.682 2.09v-2.59h-.995v-.353h2.389v.352h-.995v2.592h-.399zM6.637 17c-.427 0-.773-.142-1.037-.427-.264-.285-.397-.66-.397-1.123 0-.465.133-.84.397-1.126.264-.285.61-.428 1.037-.428.43 0 .777.143 1.04.428.264.286.396.661.396 1.126 0 .463-.132.838-.396 1.123-.263.285-.61.427-1.04.427zm0-.352a.93.93 0 0 0 .743-.331c.189-.22.283-.51.283-.867 0-.36-.094-.65-.283-.87a.927.927 0 0 0-.743-.332.925.925 0 0 0-.74.333c-.189.22-.283.51-.283.869 0 .358.094.647.282.867.189.22.436.33.741.33zm1.96.272v-2.944h1.369c.313 0 .55.068.713.204.163.135.244.333.244.595 0 .258-.084.46-.254.605a.909.909 0 0 1-.138.096l.066.032c.179.103.272.276.278.519l.016.536a.473.473 0 0 0 .034.19c.02.04.06.073.117.1v.065h-.491a.849.849 0 0 1-.032-.188 5.552 5.552 0 0 1-.024-.339l-.008-.232c-.005-.183-.05-.313-.134-.39-.085-.08-.222-.119-.413-.119h-.945v1.27h-.399zm.398-1.614h.985c.184 0 .32-.04.405-.12.085-.082.128-.21.128-.385 0-.17-.046-.294-.136-.373-.09-.078-.232-.118-.427-.118h-.955v.996zm2.557 1.614v-2.944h2.153v.352h-1.754v.9h1.602v.352h-1.602v.987h1.776v.353h-2.175zm4.49-2.091a.583.583 0 0 0-.22-.429c-.128-.101-.3-.152-.518-.152-.225 0-.395.043-.511.13a.445.445 0 0 0-.174.38c0 .114.038.2.116.255.077.056.233.112.466.166l.513.123c.275.065.472.162.589.29.117.127.176.306.176.539a.759.759 0 0 1-.304.635c-.202.156-.476.234-.821.234-.385 0-.685-.09-.902-.27-.21-.178-.316-.421-.316-.73v-.021h.367a.618.618 0 0 0 .232.494c.148.116.354.175.619.175.244 0 .43-.043.557-.127a.416.416 0 0 0 .19-.37c0-.142-.042-.246-.126-.315-.083-.066-.25-.13-.501-.19l-.513-.122c-.259-.061-.444-.147-.555-.256-.11-.11-.166-.261-.166-.455 0-.282.096-.505.287-.669.192-.166.45-.248.777-.248.33 0 .594.082.79.248.197.165.302.394.315.685h-.366zM14.113 4.433L8.473.167a.577.577 0 0 0-.811 0l-5.64 4.266a.574.574 0 0 0 .406.981h.261v5.797c0 .105.079.184.183.184h1.165a.179.179 0 0 0 .183-.184V5.414h7.695v5.797c0 .105.079.184.183.184h1.165a.179.179 0 0 0 .183-.184V5.414h.262c.51 0 .772-.628.405-.981z"/>
    <path fill="#08CEBB" d="M10.698 8.136h.144c.092 0 .17-.078.17-.17v-.144a.173.173 0 0 0-.17-.17h-.275l-.17-.563A1.39 1.39 0 0 0 9.05 6.082H7.086c-.615 0-1.164.405-1.348 1.007l-.17.563H5.28a.173.173 0 0 0-.17.17v.144c0 .092.079.17.17.17h.144c-.288.21-.47.55-.47.93v1.242c0 .157.13.275.274.275h.366v.55c0 .157.131.288.288.288h.223a.29.29 0 0 0 .288-.288v-.55h3.35v.55c0 .157.13.288.288.288h.222a.29.29 0 0 0 .288-.288v-.55h.366c.158 0 .275-.13.275-.275V9.065c0-.392-.196-.733-.484-.929zm-4.567-.942a.997.997 0 0 1 .955-.72H9.05c.445 0 .838.288.956.72l.209.72H5.922l.209-.72zm.537 2.12c0 .091-.079.17-.17.17H5.83a.173.173 0 0 1-.17-.17V9.17c0-.092.078-.17.17-.17h.667c.092 0 .17.078.17.17v.144zm3.82 0c0 .091-.078.17-.17.17h-.667a.173.173 0 0 1-.17-.17V9.17c0-.092.079-.17.17-.17h.668c.091 0 .17.078.17.17v.144z"/>
</svg>
