<svg xmlns="http://www.w3.org/2000/svg" width="12" height="12" fill="none" viewBox="0 0 12 12">
    <g fill="#08CEBB" clip-path="url(#a)">
        <path d="M4.372 6.62a.272.272 0 0 0-.272-.272h-.95a.272.272 0 0 0-.273.272v.95c0 .151.122.273.272.273h.95c.151 0 .273-.122.273-.273v-.95zM6.747 6.62a.272.272 0 0 0-.272-.272h-.95a.272.272 0 0 0-.272.272v.95c0 .151.122.273.272.273h.95c.15 0 .272-.122.272-.273v-.95zM9.123 6.62a.272.272 0 0 0-.272-.272H7.9a.272.272 0 0 0-.273.272v.95c0 .151.122.273.272.273h.95c.151 0 .273-.122.273-.273v-.95zM4.372 8.996a.272.272 0 0 0-.272-.272h-.95a.272.272 0 0 0-.273.272v.95c0 .15.122.273.272.273h.95c.151 0 .273-.122.273-.273v-.95zM6.747 8.996a.272.272 0 0 0-.272-.272h-.95a.272.272 0 0 0-.272.272v.95c0 .15.122.273.272.273h.95c.15 0 .272-.122.272-.273v-.95zM9.123 8.996a.272.272 0 0 0-.272-.272H7.9a.272.272 0 0 0-.273.272v.95c0 .15.122.273.272.273h.95c.151 0 .273-.122.273-.273v-.95z"/>
        <path d="M10.822 1.336v1.452c0 .656-.532 1.184-1.188 1.184h-.75A1.192 1.192 0 0 1 7.69 2.788V1.33H4.311v1.457c0 .656-.54 1.184-1.196 1.184h-.75a1.186 1.186 0 0 1-1.188-1.184V1.336A1.08 1.08 0 0 0 .133 2.411v8.507C.133 11.512.615 12 1.209 12h9.582c.593 0 1.076-.489 1.076-1.082V2.41a1.08 1.08 0 0 0-1.045-1.075zm-.348 9.052a.465.465 0 0 1-.465.465H1.97a.465.465 0 0 1-.465-.465V5.994c0-.257.208-.465.465-.465h8.04c.256 0 .464.208.464.465v4.394z"/>
        <path d="M2.363 3.194h.741a.407.407 0 0 0 .408-.407V.407A.407.407 0 0 0 3.104 0h-.741a.407.407 0 0 0-.407.407v2.38c0 .225.182.407.407.407zM8.875 3.194h.742a.407.407 0 0 0 .407-.407V.407A.407.407 0 0 0 9.617 0h-.742a.407.407 0 0 0-.407.407v2.38c0 .225.182.407.407.407z"/>
    </g>
    <defs>
        <clipPath id="a">
            <path fill="#fff" d="M0 0h23v23H0z" transform="scale(.52174)"/>
        </clipPath>
    </defs>
</svg>
