<svg xmlns="http://www.w3.org/2000/svg" width="16" height="11" fill="none" viewBox="0 0 16 11">
    <path fill="#fff" d="M14.742 1.365C14.742.611 14.13 0 13.377 0H1.365C.61 0 0 .611 0 1.365V2.56h14.742V1.365zM13.935 6.512h-.898v-.899a.085.085 0 0 0-.085-.085h-.678a.085.085 0 0 0-.085.085v.898h-.898a.085.085 0 0 0-.085.085v.678a.085.085 0 0 0 .085.085h.898v.899a.085.085 0 0 0 .085.085h.679a.085.085 0 0 0 .085-.085V7.36h.897a.085.085 0 0 0 .085-.085v-.678a.085.085 0 0 0-.085-.085z"/>
    <path fill="#fff" d="M12.616 3.553c-.618 0-1.198.167-1.697.457H0v4.141c0 .754.611 1.365 1.365 1.365h9.062c.59.502 1.355.806 2.189.806A3.388 3.388 0 0 0 16 6.937a3.388 3.388 0 0 0-3.384-3.384zM5.04 7.645a.175.175 0 0 1-.175.175h-2.7a.175.175 0 0 1-.176-.175v-.532c0-.097.079-.176.175-.176h2.7c.097 0 .176.079.176.176v.532zm7.575 1.437a2.145 2.145 0 1 1 0-4.29 2.145 2.145 0 0 1 0 4.29z"/>
</svg>
