<svg xmlns="http://www.w3.org/2000/svg" width="12" height="12" fill="none" viewBox="0 0 12 12">
    <path fill="#08CEBB" d="M9.143 3.173a3.143 3.143 0 1 0-6.287 0C2.856 5.66 6 9.341 6 9.341s3.143-3.693 3.143-6.168zM4.45 2.985a1.55 1.55 0 1 1 3.101 0 1.55 1.55 0 0 1-3.1 0z"/>
    <path fill="#08CEBB" d="M6 3.748a.762.762 0 1 0 0-1.525.762.762 0 0 0 0 1.525zM7.777 8.248c-.256.37-.497.692-.697.951 1.986.12 3.288.549 3.772.867-.567.375-2.253.9-4.852.9s-4.285-.526-4.852-.9c.484-.318 1.785-.747 3.77-.866-.202-.26-.442-.582-.699-.952C1.775 8.488 0 9.212 0 10.066c0 1.051 2.687 1.904 6 1.904 3.314 0 6-.852 6-1.904 0-.855-1.777-1.578-4.223-1.818z"/>
</svg>
