<svg xmlns="http://www.w3.org/2000/svg" width="18" height="18" fill="none" viewBox="0 0 18 18">
    <g filter="url(#a)">
        <path fill="#fff" d="M9 14.4A6.429 6.429 0 1 1 9 1.543 6.429 6.429 0 0 1 9 14.4z"/>
        <path fill="#009DF5" d="M3.919 7.496h1.056a4.054 4.054 0 0 1 3.55-3.55V2.89h.95v1.056a4.054 4.054 0 0 1 3.55 3.55h1.056v.95h-1.056a4.054 4.054 0 0 1-3.55 3.55v1.056h-.95v-1.056a4.054 4.054 0 0 1-3.55-3.55H3.92v-.95zm4.605 3.567v-.913h.951v.913a3.13 3.13 0 0 0 2.616-2.616h-.912v-.951h.912A3.13 3.13 0 0 0 9.475 4.88v.913h-.95V4.88a3.13 3.13 0 0 0-2.617 2.616h.913v.95h-.913a3.13 3.13 0 0 0 2.616 2.617z"/>
        <path fill="#009DF5" d="M4.975 7.496a4.054 4.054 0 0 1 3.55-3.55V2.892H9v2.902h-.476V4.88A3.13 3.13 0 0 0 5.91 7.496h.912v.951H5.91a3.13 3.13 0 0 0 2.615 2.616v-.913H9v2.902h-.476v-1.055a4.054 4.054 0 0 1-3.549-3.55H3.92v-.95h1.056z"/>
    </g>
    <defs>
        <filter id="a" width="18" height="18" x="0" y="0" color-interpolation-filters="sRGB" filterUnits="userSpaceOnUse">
            <feFlood flood-opacity="0" result="BackgroundImageFix"/>
            <feColorMatrix in="SourceAlpha" values="0 0 0 0 0 0 0 0 0 0 0 0 0 0 0 0 0 0 127 0"/>
            <feOffset dy="2"/>
            <feGaussianBlur stdDeviation="2.5"/>
            <feColorMatrix values="0 0 0 0 0.705882 0 0 0 0 0.705882 0 0 0 0 0.705882 0 0 0 0.25 0"/>
            <feBlend in2="BackgroundImageFix" result="effect1_dropShadow"/>
            <feBlend in="SourceGraphic" in2="effect1_dropShadow" result="shape"/>
        </filter>
    </defs>
</svg>
