<svg xmlns="http://www.w3.org/2000/svg" width="25" height="25" fill="none" viewBox="0 0 25 25">
    <g fill="#08CEBB" clip-path="url(#a)">
        <path d="M15.833 14.235l3.75.682v-.825c0-.262-.034-.516-.098-.758h-3.652v.901zM22.277 7.967a.763.763 0 0 0-1.078-1.077l-3.576 3.577c.535.14 1.02.39 1.428.726l3.226-3.226zM20.775 21.165l-.183.918H22.5v-1.158c0-2.31-.236-4.624-.696-6.89-.458.067-.92.106-1.387.121v.956c.422.2.706.632.706 1.128l.127 4.164a.84.84 0 0 1-.475.761zM22.866 8.556l-3.236 3.236c.345.444.59.965.706 1.533a11.687 11.687 0 0 0 4.297-.942l.308-.133-.774-3.875a2.117 2.117 0 0 0-.885-1.326 1.558 1.558 0 0 1-.416 1.507zM21.25.833c-.92 0-1.667.748-1.667 1.667h3.334c0-.919-.748-1.667-1.667-1.667zM21.25 5.833c.92 0 1.667-.747 1.667-1.666v-.833h-3.334v.833c0 .919.748 1.667 1.667 1.667zM10.83 7.27l1.001 2.25.982.158-1.451-3.265 2.04-3.297A4.789 4.789 0 0 1 17.5.833V0c-1.972 0-3.768 1-4.806 2.677l-3.621 5.85.617.584 1.14-1.84zM5.69 8.018l1.532 1.149h1.316L2.344 3.299c-.45-.426-.956-.683-1.51-.768v.922c.292.103.559.267.782.49L5.69 8.019z"/>
        <path d="M20.29 16.253a.419.419 0 0 0-.354-.425L15 14.931V12.5h4.115a2.905 2.905 0 0 0-1.988-1.288L9.55 10H7.49a11.308 11.308 0 0 1-.717 3.58 6.689 6.689 0 0 1 4.556 4.337h9.012l-.051-1.664zM4.41 7.917H3.126a.626.626 0 0 0 0 1.25h2.712l-.715-.54-.711-.71zM22.819 23.431l-1.098.549a.098.098 0 0 0-.054.088v.098H25v-1.25h-1.729a.92.92 0 0 1-.452.515zM24.962 13.149c-.76.325-1.54.571-2.337.741.468 2.313.708 4.676.708 7.035v1.159H25v-8.952l-.038.017zM20.405 22.916a.924.924 0 0 1-.443.485l-1.157.58a.097.097 0 0 0-.055.087c0 .054.044.098.098.098h1.985v-.098c0-.355.198-.674.515-.833l.637-.319h-1.58zM1.667 8.542a1.46 1.46 0 0 1 1.458-1.459h.452l-2.55-2.55a1.268 1.268 0 0 0-.193-.155V8.75h.854c-.01-.069-.021-.137-.021-.208zM5.947 13.409c.425-1.095.664-2.238.71-3.409H3.125c-.396 0-.754-.16-1.018-.416H.833v5.213A6.69 6.69 0 0 1 5 13.334c.322 0 .637.03.947.075zM20.417 20.417l-.051-1.667h-8.821c.077.405.122.823.122 1.25v.417h8.75zM5 18.75c-.69 0-1.25.56-1.25 1.25s.56 1.25 1.25 1.25 1.25-.56 1.25-1.25-.56-1.25-1.25-1.25zm.417 1.667h-.834v-.834h.834v.834z"/>
        <path d="M5 15c-2.757 0-5 2.243-5 5s2.243 5 5 5 5-2.243 5-5-2.243-5-5-5zm0 7.083A2.086 2.086 0 0 1 2.917 20c0-1.149.934-2.083 2.083-2.083S7.083 18.85 7.083 20A2.086 2.086 0 0 1 5 22.083z"/>
    </g>
    <defs>
        <clipPath id="a">
            <path fill="#fff" d="M0 0h50v50H0z" transform="scale(.5)"/>
        </clipPath>
    </defs>
</svg>
