<svg xmlns="http://www.w3.org/2000/svg" width="20" height="20" fill="none" viewBox="0 0 20 20">
    <circle cx="10" cy="10" r="9.5" fill="#00AFE7" fill-opacity=".17" stroke="#00AFE7"/>
    <path fill="#585858" d="M15.372 8.913c-.068-.601-1.688 0-1.688 0l-.095.856a1.205 1.205 0 0 0-.11-.056l-.408-1.786c-.15-.85-.792-1.476-1.727-1.443H8.942c-.015.1-.038.196-.067.29h2.631c.546 0 1.046.351 1.183.931l.44 1.763c-.028-.001-.056-.004-.084-.004H7.95l.002 1.718h3.156v.384H7.952v.113h3.124v.385H7.952l.001 1.443h3.37v.914c0 .372.46.674 1.026.674.567 0 1.026-.302 1.026-.674v-1.02c.484-.183.82-.583.82-1.048v-1.636c0-.361-.203-.683-.52-.895l1.697-.091s.068-.217 0-.818zm-1.943 3.122h-1.852v-.88h1.852v.88z"/>
    <path fill="#000" d="M7.952 11.679h-.047v.385h.047v-.385zM7.952 11.183h-.015v.384h.015v-.384z"/>
    <path fill="#585858" d="M8.577 6.225a1.99 1.99 0 0 0-1-1.725v1.593l-.99.571-.99-.573V4.5A1.988 1.988 0 0 0 5.69 8v6.561a.937.937 0 0 0 .939.939.94.94 0 0 0 .938-.939l-.004-6.603a1.99 1.99 0 0 0 1.015-1.733zm-1.743 8.752a.359.359 0 1 1 0 0z"/>
</svg>
