<svg xmlns="http://www.w3.org/2000/svg" width="26" height="21" fill="none" viewBox="0 0 26 21">
    <path fill="#08CEBB" d="M15.922 21c1.005 0 1.904-.37 2.645-1.058l5.766-5.766a3.766 3.766 0 0 0 1.11-2.645v-1.11l-.634-.635-10.58 10.58c.424.422.953.634 1.535.634h.158zM22.534 7.564l-.952.952a.83.83 0 0 1-1.164 0 .83.83 0 0 1 0-1.163l.9-.952-.635-.688-.952.952a.83.83 0 0 1-1.164 0 .83.83 0 0 1 0-1.164l.952-.952-.9-.9h-.21l-.054-.052L15.552.793a2.682 2.682 0 0 0-3.809 0L8.887 3.597l-.053.053H7.458l-.211.212-.794-.794c-.105-.106-.317-.106-.476 0L3.28 5.766c-.106.106-.106.317 0 .476l.793.793-.317.265v.952c0 1.058.423 2.116 1.216 2.856l8.305 8.358 10.58-10.58-1.323-1.322zM12.801 1.8c.476-.477 1.27-.477 1.693 0l1.851 1.798H10.95L12.8 1.799zm4.76 11.32a2.045 2.045 0 0 1-2.961 0c-.847-.847-1.429-4.391-1.429-4.391s3.544.582 4.39 1.375c.794.9.794 2.222 0 3.015zM0 16.927a2.822 2.822 0 0 0 2.804 2.804 2.822 2.822 0 0 0 2.803-2.804c0-1.534-2.803-5.13-2.803-5.13S0 15.392 0 16.926z"/>
</svg>
