<svg xmlns="http://www.w3.org/2000/svg" width="12" height="12" fill="none" viewBox="0 0 12 12">
    <g fill="#08CEBB" clip-path="url(#a)">
        <path d="M9.453 3.093c.175 0 .224-.236.066-.307L3.382.065a.741.741 0 0 0-.98.375L.255 5.26a.741.741 0 0 0 .375.98l1.238.535A.236.236 0 0 0 2.2 6.56V4.515c0-.784.636-1.42 1.42-1.42h5.834v-.002z"/>
        <path d="M11.06 3.76H3.615a.751.751 0 0 0-.752.752V9.77c0 .415.337.752.752.752h1a2.729 2.729 0 0 1 .01-.953H3.82V7.052h7.038v2.514h-.808a2.724 2.724 0 0 1 .01.953h1a.751.751 0 0 0 .75-.751V4.512a.752.752 0 0 0-.75-.751zm-.202 1.742H3.82v-.788h7.038v.788z"/>
        <path d="M7.339 8.14a1.93 1.93 0 1 0 0 3.86 1.93 1.93 0 0 0 0-3.86zm.555 2.691a.61.61 0 0 1-.322.207c-.056.014-.081.044-.079.103.003.056 0 .113 0 .172 0 .051-.027.078-.076.078a2.262 2.262 0 0 1-.184 0c-.054 0-.078-.032-.078-.083v-.126c0-.09-.005-.095-.094-.11a1.159 1.159 0 0 1-.326-.093c-.081-.04-.091-.06-.067-.145.017-.064.035-.128.054-.19.022-.073.042-.08.11-.046.116.059.237.093.364.108.081.01.162.002.238-.032.143-.061.165-.226.045-.324a.496.496 0 0 0-.135-.079c-.126-.054-.256-.096-.371-.167-.192-.113-.312-.27-.297-.503.014-.263.164-.425.405-.513.098-.037.1-.035.1-.138v-.106c.003-.078.015-.09.094-.093h.071c.167 0 .167 0 .167.167 0 .118 0 .118.118.135.088.015.174.04.258.076.046.02.064.052.049.101-.02.071-.04.145-.064.214-.022.066-.044.076-.108.046a.81.81 0 0 0-.408-.08.326.326 0 0 0-.108.021c-.122.054-.145.192-.039.275a.785.785 0 0 0 .177.101c.11.044.218.089.324.147.324.18.415.595.182.877z"/>
    </g>
    <defs>
        <clipPath id="a">
            <path fill="#fff" d="M0 0h24v24H0z" transform="scale(.5)"/>
        </clipPath>
    </defs>
</svg>
