<svg xmlns="http://www.w3.org/2000/svg" width="17" height="18" fill="none" viewBox="0 0 17 18">
    <path fill="#626161" d="M1.96 15.768a.6.6 0 0 0-.227-.44c-.131-.104-.31-.156-.533-.156-.23 0-.405.044-.525.133-.12.09-.179.22-.179.392 0 .116.04.203.12.26.08.059.239.116.48.172l.526.125c.283.068.485.167.605.299.121.13.182.315.182.554a.78.78 0 0 1-.313.652c-.208.16-.489.241-.844.241-.396 0-.704-.093-.927-.278C.108 17.54 0 17.29 0 16.972v-.022h.377c.007.22.086.39.239.509.152.119.364.179.636.179.25 0 .442-.044.572-.13a.428.428 0 0 0 .195-.38c0-.146-.043-.254-.13-.324-.084-.069-.256-.134-.514-.196l-.527-.125c-.266-.063-.456-.151-.57-.264-.114-.112-.171-.268-.171-.467 0-.29.098-.519.294-.688.198-.17.464-.255.8-.255.34 0 .61.085.812.256.202.17.31.404.323.704H1.96zm1.729 2.15v-2.664H2.666v-.362h2.456v.362H4.099v2.664h-.41zM6.822 18c-.44 0-.795-.146-1.066-.439-.272-.293-.408-.678-.408-1.154 0-.478.136-.864.408-1.157.271-.294.627-.44 1.066-.44.442 0 .798.146 1.068.44.272.293.408.68.408 1.157 0 .476-.136.86-.408 1.154-.27.293-.626.439-1.068.439zm0-.362c.316 0 .57-.114.764-.34.193-.226.29-.523.29-.891 0-.37-.097-.667-.29-.894a.953.953 0 0 0-.764-.341.951.951 0 0 0-.762.341c-.193.227-.29.525-.29.894 0 .367.097.665.29.891.194.227.448.34.762.34zm2.013.28v-3.026h1.408c.322 0 .566.07.733.21.168.138.251.342.251.61 0 .266-.087.473-.261.623a.93.93 0 0 1-.142.098l.068.033c.184.106.28.284.286.534l.016.551c.003.09.015.156.035.196.021.04.06.074.12.103v.066h-.505a.877.877 0 0 1-.032-.194 5.67 5.67 0 0 1-.025-.348l-.008-.239c-.006-.188-.052-.321-.138-.401-.087-.081-.228-.122-.424-.122h-.972v1.306h-.41zm.41-1.66h1.013c.19 0 .328-.04.416-.123.087-.084.131-.216.131-.395 0-.175-.046-.302-.14-.383-.092-.081-.238-.122-.438-.122h-.982v1.024zm2.629 1.66v-3.026h2.213v.362h-1.804v.924h1.647v.362h-1.647v1.015h1.826v.363h-2.235zm4.615-2.15a.599.599 0 0 0-.226-.44c-.132-.104-.31-.156-.534-.156-.23 0-.405.044-.524.133-.12.09-.18.22-.18.392 0 .116.04.203.12.26.08.059.24.116.48.172l.526.125c.283.068.485.167.606.299.12.13.18.315.18.554a.78.78 0 0 1-.312.652c-.207.16-.489.241-.844.241-.395 0-.704-.093-.927-.278-.216-.182-.325-.432-.325-.75v-.022h.377c.007.22.086.39.239.509.152.119.364.179.636.179.251 0 .442-.044.572-.13a.428.428 0 0 0 .196-.38c0-.146-.043-.254-.13-.324-.085-.069-.257-.134-.515-.196l-.527-.125c-.266-.063-.456-.151-.57-.264-.114-.112-.17-.268-.17-.467 0-.29.097-.519.294-.688.197-.17.464-.255.798-.255.34 0 .612.085.814.256.201.17.309.404.323.704h-.377zM14.506 4.556L8.71.171a.593.593 0 0 0-.834 0L2.078 4.556a.59.59 0 0 0 .417 1.009h.27v5.958c0 .108.08.189.187.189H4.15c.108 0 .189-.08.189-.188V5.565h7.908v5.958c0 .108.081.189.189.189h1.197c.107 0 .188-.08.188-.188V5.565h.27c.524 0 .793-.646.416-1.009z"/>
    <path fill="#626161" d="M10.996 8.362h.148c.094 0 .175-.08.175-.174V8.04a.178.178 0 0 0-.175-.175h-.283l-.175-.579a1.429 1.429 0 0 0-1.385-1.035H7.283c-.632 0-1.197.417-1.385 1.035l-.175.579h-.296a.178.178 0 0 0-.175.175v.148c0 .094.081.174.175.174h.148a1.178 1.178 0 0 0-.484.955v1.278c0 .162.135.283.283.283h.376v.565c0 .161.135.296.296.296h.229a.299.299 0 0 0 .296-.296v-.565h3.443v.565c0 .161.134.296.296.296h.228a.299.299 0 0 0 .296-.296v-.565h.377a.284.284 0 0 0 .282-.283V9.317c0-.403-.201-.753-.497-.955zm-4.694-.968c.12-.43.524-.74.981-.74h2.018c.457 0 .86.296.982.74l.215.74H6.086l.216-.74zm.551 2.179c0 .094-.08.175-.175.175h-.686a.178.178 0 0 1-.175-.175v-.148c0-.094.081-.175.175-.175h.686c.094 0 .175.08.175.175v.148zm3.928 0c0 .094-.081.175-.175.175H9.92a.178.178 0 0 1-.175-.175v-.148c0-.094.08-.175.175-.175h.686c.094 0 .175.08.175.175v.148z"/>
</svg>
