<svg xmlns="http://www.w3.org/2000/svg" width="12" height="12" fill="none" viewBox="0 0 12 12">
    <path fill="#08CEBB" d="M0 1.907c2.764.596 5.9.16 8.863-1.31v1.434c-2.963.991-6.1.95-8.863-.124zm10.459 1.03v-1.2C7.054 3.356 3.267 3.534 0 2.27a13.213 13.213 0 0 0 10.459.667zM5.897 8.849V7.68c-.32-.062-.555-.174-.708-.32-.152-.146-.228-.344-.228-.587 0-.218.082-.406.246-.571.165-.165.394-.243.69-.243v-.286h.21v.28c.293.018.518.09.675.23.157.138.238.326.246.568-.129.01-.258.018-.387.025a.595.595 0 0 0-.09-.277c-.093-.141-.241-.212-.444-.217v1.046c.34.09.573.163.696.238.198.123.297.312.297.576 0 .381-.127.664-.381.838-.142.097-.345.165-.612.196v.416h-.21v-.416c-.43-.031-.72-.2-.873-.48-.083-.15-.125-.348-.125-.596.13.01.26.02.39.027.012.197.044.342.096.434.092.167.263.266.512.29zm.21.01c.253-.014.426-.11.522-.283a.61.61 0 0 0 .075-.302.443.443 0 0 0-.204-.399 1.368 1.368 0 0 0-.393-.145v1.129zm-.21-1.572v-1.01c-.194.005-.333.058-.415.161a.526.526 0 0 0-.123.332c0 .142.048.256.145.34a.84.84 0 0 0 .393.177zM0 2.67c3.77 1.92 8.23 1.92 12 0v7.29a13.216 13.216 0 0 1-12 0v-7.29zm3.472 4.717C3.47 8.746 4.594 10.105 6 10.102c1.406.004 2.53-1.355 2.528-2.714C8.53 6.02 7.406 5.166 6 5.162c-1.406.004-2.53.859-2.528 2.226z"/>
</svg>
