<svg xmlns="http://www.w3.org/2000/svg" width="25" height="25" fill="none" viewBox="0 0 25 25">
    <path fill="#08CEBB" d="M21.85 14.533c-.638 0-1.156-.505-1.156-1.127v-2.72h1.515c.24 0 .399-.194.399-.388V9.52a5.848 5.848 0 0 1-2.313.467 5.59 5.59 0 0 1-2.312-.505v.777c0 .194.16.388.398.388h1.516v2.72c0 1.05.877 1.905 1.953 1.905.638 0 1.157.505 1.157 1.127v4.508c0 1.437-.917 2.681-2.353 3.147-1.116.35-2.711.234-3.788-1.165l-.558-.739c-.2.194-.359.389-.558.583l.478.622c1.117 1.438 2.95 1.982 4.665 1.438 1.755-.544 2.871-2.06 2.871-3.848v-4.507c.04-1.05-.837-1.905-1.914-1.905zM20.295 9.21C22.887 9.21 25 7.15 25 4.586 25 2.06 22.887 0 20.295 0S15.55 2.06 15.55 4.586c0 2.564 2.113 4.624 4.745 4.624zm.359-4.003c0 .234-.16.389-.399.389-.24 0-.399-.155-.399-.389V4.08c0-.233.16-.388.4-.388.238 0 .398.155.398.388v1.127zm-.399-2.875c1.236 0 2.233.932 2.313 2.137 0 .233-.16.389-.36.427h-.039c-.2 0-.399-.155-.399-.35-.04-.777-.717-1.398-1.515-1.398-.797 0-1.475.621-1.515 1.399 0 .233-.2.388-.439.35a.354.354 0 0 1-.358-.428c.08-1.205 1.116-2.137 2.312-2.137zM9.011 16.477a.59.59 0 0 0 .599-.583.59.59 0 0 0-.599-.583.59.59 0 0 0-.598.583.59.59 0 0 0 .598.583zM12.002 15.894c.279.389.837.933 1.395 1.127.08-.35.16-.738.16-1.127s-.04-.777-.16-1.127c-.558.194-1.116.739-1.395 1.127zM5.98 15.894c-.278-.389-.836-.933-1.395-1.127-.08.35-.16.739-.16 1.127 0 .389.04.777.16 1.127.559-.194 1.117-.738 1.396-1.127zM9.011 12.94c.4-.271.957-.815 1.157-1.36-.36-.077-.758-.155-1.157-.155-.398 0-.797.04-1.156.156.16.583.758 1.088 1.156 1.36zM8.971 18.808c-.399.272-.957.816-1.156 1.36.359.078.757.156 1.156.156.399 0 .798-.04 1.156-.156-.16-.544-.757-1.049-1.156-1.36z"/>
    <path fill="#08CEBB" d="M15.39 17.642c.12-.194.36-.233.56-.155.198.117.238.35.159.544-.36.583.04 1.438.877 1.904a8.077 8.077 0 0 0 .997-3.653c-1.396 0-2.552-.893-2.552-1.982 0-.233.16-.388.399-.388.239 0 .398.155.398.388 0 .661.798 1.205 1.755 1.205-.04-1.321-.4-2.526-.997-3.653-1.157.622-2.632.544-3.23-.505-.12-.194-.04-.428.16-.544.199-.117.438-.039.558.155.399.661 1.435.583 2.113.195a8.944 8.944 0 0 0-2.751-2.682c-.638 1.088-1.994 1.749-3.03 1.127-.2-.116-.24-.35-.16-.544.12-.194.359-.233.558-.155.678.388 1.555-.195 1.954-.855a8.625 8.625 0 0 0-3.748-.972c0 1.36-.917 2.487-2.034 2.487-.239 0-.398-.155-.398-.388s.16-.389.398-.389c.678 0 1.237-.777 1.237-1.71-1.356.04-2.592.389-3.749.972.32.544.479 1.166.4 1.749a1.9 1.9 0 0 1-.878 1.399c-.2.116-.439.038-.558-.156-.12-.194-.04-.427.16-.544.677-.389.597-1.399.199-2.06a8.943 8.943 0 0 0-2.752 2.682c1.197.7 1.715 2.02 1.157 2.953-.12.195-.36.233-.558.156-.2-.117-.24-.35-.16-.544.359-.583-.04-1.438-.877-1.905A8.077 8.077 0 0 0 0 15.428c1.396 0 2.552.894 2.552 1.982 0 .233-.16.389-.399.389-.24 0-.399-.156-.399-.389 0-.66-.797-1.204-1.754-1.204.04 1.32.399 2.526.997 3.653 1.116-.622 2.592-.544 3.23.505.12.194.04.427-.16.544-.2.116-.439.039-.558-.156-.399-.66-1.436-.583-2.113-.194a8.943 8.943 0 0 0 2.75 2.681c.679-1.088 1.994-1.748 3.031-1.127.2.117.24.35.16.544-.12.195-.36.234-.559.156-.677-.389-1.555.194-1.953.855a8.626 8.626 0 0 0 3.748.971c0-1.36.917-2.487 2.033-2.487.24 0 .399.156.399.389s-.16.388-.399.388c-.678 0-1.236.778-1.236 1.71.798-.038 1.595-.194 2.353-.388-.2-.816.478-2.992 2.033-2.992.24 0 .399.155.399.388s-.16.389-.399.389c-.638 0-1.196.855-1.236 1.943a8.84 8.84 0 0 0 4.027-3.342c-1.196-.739-1.754-2.06-1.156-2.993zm-1.315-.038s0 .038-.04.038c-.757 2.021-2.711 3.46-5.064 3.46-2.87 0-5.382-2.294-5.382-5.247 0-2.798 2.352-5.246 5.382-5.246 2.871 0 5.383 2.292 5.383 5.246 0 .622-.08 1.204-.279 1.749z"/>
    <path fill="#08CEBB" d="M10.925 11.853c-.399 1.088-1.635 1.865-1.715 1.904-.08.039-.12.039-.199.039-.08 0-.16 0-.2-.04-.08-.038-1.315-.815-1.714-1.903-.997.427-1.754 1.204-2.233 2.176 1.117.388 1.914 1.593 1.954 1.67.08.117.08.273 0 .39-.04.077-.837 1.282-1.954 1.67.439.972 1.236 1.71 2.233 2.177.399-1.088 1.635-1.866 1.715-1.904a.37.37 0 0 1 .398 0c.08.038 1.316.816 1.715 1.904.997-.428 1.754-1.205 2.233-2.177-1.117-.388-1.914-1.593-1.954-1.67a.345.345 0 0 1 0-.39c.04-.077.837-1.282 1.954-1.67a4.614 4.614 0 0 0-2.233-2.176zm-1.914 5.401c-.758 0-1.395-.622-1.395-1.36 0-.738.637-1.36 1.395-1.36s1.396.622 1.396 1.36c0 .739-.638 1.36-1.396 1.36z"/>
</svg>
