<svg xmlns="http://www.w3.org/2000/svg" width="25" height="25" fill="none" viewBox="0 0 25 25">
    <path fill="#08CEBB" d="M19.537 7.51H4.585l-1.286 5.275H.272v1.943l2.23.308-.793 1.913V25h3.45l.192-2.215 13.42-.005.19 2.22h3.451v-8.051l-.793-1.913 2.23-.308v-1.943h-3.027L19.537 7.51zM5.723 8.898h12.675l1.285 5.275H4.438l1.285-5.275zm-.995 11.105c-.873 0-1.581-.684-1.581-1.527 0-.843.708-1.527 1.581-1.527.874 0 1.582.684 1.582 1.527 0 .843-.708 1.527-1.582 1.527zm11.07 1.11H8.324l-.288-1.943h8.05l-.287 1.943zm3.595-1.11c-.874 0-1.582-.684-1.582-1.527 0-.843.708-1.527 1.582-1.527.873 0 1.581.684 1.581 1.527 0 .843-.708 1.527-1.581 1.527zM7.591 7.079l1.027-2.548 2.639-.99-2.64-.992L7.592 0 6.565 2.549l-2.639.99 2.639.992L7.59 7.079zm-.36-3.887l.36-.894.36.893.926.349-.926.347-.36.895-.36-.895-.926-.347.926-.348zM2.104 8.259l.844-1.217 1.26-.815-1.26-.815-.844-1.217-.844 1.217L0 6.227l1.26.815.844 1.217zm-.222-2.246l.222-.321.222.32.333.215-.333.215-.222.32-.222-.32-.332-.215.332-.214zM21.142 8.566l1.087-2.675L25 4.84l-2.77-1.05-1.087-2.675-1.087 2.675-2.771 1.05 2.77 1.049 1.088 2.676zm-.422-4.132l.422-1.038.422 1.038 1.074.407-1.074.407-.422 1.038-.422-1.039-1.074-.406 1.074-.407z"/>
</svg>
