<svg xmlns="http://www.w3.org/2000/svg" width="12" height="12" fill="none" viewBox="0 0 12 12">
    <g clip-path="url(#a)">
        <path fill="#CB0000" d="M11.894 9.986L6.63 1.255a.735.735 0 0 0-1.26 0L.106 9.985a.735.735 0 0 0 .63 1.116h10.529a.735.735 0 0 0 .63-1.115zm-5.89-6.067c.302 0 .558.17.558.473 0 .923-.108 2.248-.108 3.171 0 .24-.264.341-.45.341-.248 0-.457-.1-.457-.341 0-.923-.109-2.248-.109-3.17 0-.303.248-.474.566-.474zm.008 5.714a.597.597 0 0 1 0-1.194.6.6 0 0 1 .589.597.606.606 0 0 1-.59.597z"/>
    </g>
    <defs>
        <clipPath id="a">
            <path fill="#fff" d="M0 0h24v24H0z" transform="scale(.5)"/>
        </clipPath>
    </defs>
</svg>
