<svg xmlns="http://www.w3.org/2000/svg" width="12" height="15" fill="none" viewBox="0 0 12 15">
    <path fill="#626161" fill-opacity=".35" d="M11.708 6.88A.97.97 0 0 0 11 6.59h-.334V4.614c0-1.264-.458-2.348-1.374-3.255C8.375.453 7.278 0 6 0S3.625.453 2.708 1.36c-.917.906-1.375 1.99-1.375 3.254V6.59H1a.97.97 0 0 0-.708.288.948.948 0 0 0-.292.7v5.932c0 .275.097.509.292.7A.97.97 0 0 0 1 14.5h10a.97.97 0 0 0 .708-.288.95.95 0 0 0 .292-.7V7.58a.948.948 0 0 0-.292-.7zM8.667 6.59H3.333V4.614c0-.728.26-1.35.782-1.864A2.584 2.584 0 0 1 6 1.977c.736 0 1.365.258 1.885.773.521.514.782 1.136.782 1.864V6.59z"/>
</svg>
