<svg xmlns="http://www.w3.org/2000/svg" width="12" height="10" fill="none" viewBox="0 0 12 10">
    <path fill="#ffffff" d="M0 5.523c0-.236.053-.461.15-.668.01-.052.02-.104.035-.158l1.042-2.583.008-.023C1.599 1.005 2.118 0 3.434 0h5.031c1.348 0 1.825 1.03 2.197 2.085l1.09 2.59c.158.252.248.54.248.848v.804c0 .124-.015.246-.043.363.027.07.043.147.043.227v2.391c0 .35-.284.635-.635.635h-1.317a.635.635 0 0 1-.635-.635V8.112H2.512v1.196c0 .35-.285.635-.635.635H.635A.635.635 0 0 1 0 9.308V6.917c0-.08.016-.157.043-.227A1.57 1.57 0 0 1 0 6.327v-.804zM9.89 2.344C9.474 1.174 9.14.816 8.465.816h-5.03c-.67 0-1.044.399-1.423 1.523l-.76 1.542c.248-.092.521-.143.808-.143h7.88c.258 0 .505.041.734.117l-.785-1.51zm-.654 4.288h1.39a.453.453 0 0 0 0-.906h-1.39a.453.453 0 0 0 0 .906zm-4.91-.09H7.56a.287.287 0 0 0 0-.575H4.326a.287.287 0 1 0 0 .574zm-2.915.09H2.8a.453.453 0 0 0 0-.906H1.41a.453.453 0 1 0 0 .906z"/>
</svg>